<?xml version="1.0" encoding="UTF-8"?>
<!-- Generator: Adobe Illustrator 16.0.3, SVG Export Plug-In . SVG Version: 6.00 Build 0)  -->
<svg xmlns="http://www.w3.org/2000/svg" xmlns:xlink="http://www.w3.org/1999/xlink" version="1.1" id="Layer_1" x="0px"
	 y="0px" width="254.553px" height="243.1px" viewBox="0 0 254.553 243.1" xml:space="preserve">
<g>
	<g>
		<path fill="#5C35E5"
			  d="M48.176,242.855c8.728,0,17.016-0.258,25.278,0.096c5.036,0.215,6.333-1.645,6.654-6.519    c1.374-20.826,16.811-38.053,37.318-42.281c3.215-0.663,6.461-1.174,9.311-1.687c0-10.788,0-20.979,0-31.123    C79.058,160.299,44.727,204.028,48.176,242.855z"></path>
	</g>
	<g>
		<path fill="#FF9400"
			  d="M110.511,112.2C149.22,86.47,154.684,30.688,127.986,0c-8.262,6.009-16.554,12.04-24.933,18.134    c15.741,26.286,11.769,49.131-10.858,68.886C98.426,95.586,104.354,103.736,110.511,112.2z"></path>
	</g>
	<g>
		<path fill="#FF3609"
			  d="M161.1,87.262c-6.395,8.559-12.608,16.874-18.796,25.156c39.815,31.889,94.679,14.296,112.249-16.344    c-8.141-6.13-16.319-12.289-24.382-18.36C205.613,100.704,188.14,103.179,161.1,87.262z"></path>
	</g>
	<g>
		<path fill="#FFC100"
			  d="M151.42,141.969c-16.841,38.434,11.024,93.096,51.559,101.131c3.162-9.789,6.35-19.657,9.508-29.437    c-28.029-12.213-38.233-32.801-31.65-62.098C170.912,148.328,161.376,145.217,151.42,141.969z"></path>
	</g>
	<g>
		<path fill="#00C5D0"
			  d="M9.359,120.86c29.086-6.711,51.174,4.965,62.422,31.846c9.811-3.222,19.669-6.46,29.488-9.685    C87.606,95.667,33.951,76.619,0,91.816C3.108,101.461,6.241,111.184,9.359,120.86z"></path>
	</g>
	<g>
		<path fill="#FF9400"
			  d="M76.095,77.227c8.821,0.007,16.182-7.46,16.089-16.324c-0.09-8.669-7.106-15.752-15.788-15.938    c-8.898-0.191-16.346,7.047-16.424,15.962C59.894,69.813,67.22,77.22,76.095,77.227z"></path>
	</g>
	<g>
		<path fill="#5C35E5"
			  d="M141.966,223.229c0.157-8.694-6.792-16.104-15.421-16.441c-8.798-0.344-16.499,7.011-16.654,15.905    c-0.152,8.678,6.816,16.069,15.45,16.39C134.309,239.416,141.802,232.271,141.966,223.229z"></path>
	</g>
	<g>
		<path fill="#FF3609"
			  d="M194.536,65.184c0.155-8.987-7.116-16.382-16.097-16.373c-8.565,0.01-15.882,7.223-16.047,15.821    c-0.165,8.652,6.816,16.021,15.478,16.333C186.891,81.292,194.38,74.2,194.536,65.184z"></path>
	</g>
	<g>
		<path fill="#00C5D0"
			  d="M41.703,176.094c8.926,0.161,16.497-7.206,16.502-16.059c0.005-8.562-7.181-15.741-15.904-15.886    c-8.997-0.15-16.051,6.458-16.316,15.285C25.709,168.582,32.643,175.93,41.703,176.094z"></path>
	</g>
	<g>
		<path fill="#FFC100"
			  d="M209.468,179.144c8.603-0.174,15.849-7.564,15.807-16.121c-0.044-8.912-7.562-16.245-16.495-16.089    c-8.972,0.156-16.023,7.695-15.682,16.765C193.426,172.426,200.734,179.32,209.468,179.144z"></path>
	</g>
	<g>
		<path fill="#5C35E5"
			  d="M48.176,242.855c-3.45-38.827,30.881-82.557,78.562-81.513c0,10.144,0,20.335,0,31.123    c-2.849,0.512-6.095,1.024-9.311,1.687c-20.508,4.228-35.944,21.455-37.318,42.281c-0.322,4.874-1.619,6.733-6.654,6.519    C65.192,242.598,56.904,242.855,48.176,242.855z"></path>
	</g>
	<g>
		<path fill="#FFCA28"
			  d="M110.511,112.2c-6.156-8.464-12.085-16.614-18.316-25.18c22.626-19.755,26.599-42.601,10.858-68.886    C111.432,12.04,119.724,6.009,127.986,0C154.684,30.688,149.22,86.47,110.511,112.2z"></path>
	</g>
	<g>
		<path fill="#FF3609"
			  d="M161.1,87.262c27.04,15.917,44.513,13.442,69.071-9.548c8.063,6.071,16.241,12.229,24.382,18.36    c-17.57,30.64-72.434,48.232-112.249,16.344C148.492,104.136,154.706,95.821,161.1,87.262z"></path>
	</g>
	<path fill="#5C35E5"
		  d="M151.42,141.969c9.956,3.248,19.491,6.359,29.416,9.597c-6.583,29.296,3.621,49.885,31.65,62.098   c-3.158,9.779-6.346,19.647-9.508,29.437C162.445,235.064,134.58,180.403,151.42,141.969z"></path>
	<g>
		<path fill="#00C5D0"
			  d="M9.359,120.86C6.241,111.184,3.108,101.461,0,91.816c33.951-15.197,87.606,3.851,101.27,51.205    c-9.819,3.225-19.677,6.463-29.488,9.685C60.534,125.825,38.446,114.149,9.359,120.86z"></path>
	</g>
	<g>
		<path fill="#FFCA28"
			  d="M76.095,77.227c-8.875-0.007-16.201-7.414-16.123-16.3c0.079-8.916,7.526-16.154,16.424-15.962    c8.681,0.187,15.697,7.27,15.788,15.938C92.277,69.767,84.916,77.234,76.095,77.227z"></path>
	</g>
	<g>
		<path fill="#5C35E5"
			  d="M141.966,223.229c-0.164,9.041-7.657,16.187-16.625,15.854c-8.634-0.32-15.602-7.712-15.45-16.39    c0.155-8.895,7.856-16.249,16.654-15.905C135.174,207.126,142.124,214.535,141.966,223.229z"></path>
	</g>
	<g>
		<path fill="#FF3609"
			  d="M194.536,65.184c-0.155,9.017-7.645,16.108-16.666,15.782c-8.661-0.313-15.643-7.681-15.478-16.333    c0.165-8.598,7.481-15.812,16.047-15.821C187.419,48.801,194.691,56.197,194.536,65.184z"></path>
	</g>
	<g>
		<path fill="#00C5D0"
			  d="M41.703,176.094c-9.06-0.164-15.994-7.512-15.718-16.66c0.265-8.827,7.319-15.435,16.316-15.285    c8.723,0.145,15.91,7.324,15.904,15.886C58.2,168.888,50.629,176.255,41.703,176.094z"></path>
	</g>
	<path fill="#5C35E5"
		  d="M209.468,179.144c-8.734,0.176-16.042-6.718-16.37-15.445c-0.342-9.07,6.71-16.609,15.682-16.765   c8.934-0.155,16.451,7.177,16.495,16.089C225.317,171.58,218.071,178.97,209.468,179.144z"></path>
</g>
</svg>
